<svg width="24" height="17" viewBox="0 0 24 17" fill="none" xmlns="http://www.w3.org/2000/svg">
<g clip-path="url(#clip0_4437_1374)">
<path d="M12.5 9.12066C10.716 11.4907 8.562 14.1437 4.466 14.1437H-0.5C-0.765216 14.1437 -1.01957 14.0383 -1.20711 13.8508C-1.39464 13.6632 -1.5 13.4089 -1.5 13.1437V8.12066C-1.5 7.85544 -1.39464 7.60109 -1.20711 7.41355C-1.01957 7.22601 -0.765216 7.12066 -0.5 7.12066H11.5C13.284 4.75066 15.44 2.09766 19.534 2.09766H24.5C24.7652 2.09766 25.0196 2.20301 25.2071 2.39055C25.3946 2.57809 25.5 2.83244 25.5 3.09766V8.12066C25.5 8.38587 25.3946 8.64023 25.2071 8.82776C25.0196 9.0153 24.7652 9.12066 24.5 9.12066H12.5Z" fill="white"/>
<path d="M4.466 13.1441C8.233 13.1441 10.116 10.6321 12 8.12109H-0.5V13.1441H4.466Z" fill="url(#paint0_linear_4437_1374)"/>
<path d="M19.534 3.09766C15.767 3.09766 13.884 5.60866 12 8.12066H24.5V3.09766H19.534Z" fill="url(#paint1_linear_4437_1374)"/>
</g>
<defs>
<linearGradient id="paint0_linear_4437_1374" x1="2.028" y1="10.8641" x2="11.173" y2="7.46809" gradientUnits="userSpaceOnUse">
<stop stop-color="#005AB9"/>
<stop offset="1" stop-color="#1E3764"/>
</linearGradient>
<linearGradient id="paint1_linear_4437_1374" x1="12.757" y1="8.55566" x2="22.466" y2="5.24366" gradientUnits="userSpaceOnUse">
<stop stop-color="#FBA900"/>
<stop offset="1" stop-color="#FFD800"/>
</linearGradient>
<clipPath id="clip0_4437_1374">
<rect width="27" height="16" fill="white" transform="translate(-1.5 0.0976562)"/>
</clipPath>
</defs>
</svg>
