<svg width="100" height="98" viewBox="0 0 100 98" fill="none" xmlns="http://www.w3.org/2000/svg">
<path d="M17.7086 0H82.2919C92.0836 0 100 7.91667 100 17.7083V79.7917C100 89.5833 92.0836 97.5 82.2919 97.5H17.7086C7.91691 97.5 0.000244141 89.5833 0.000244141 79.7917V17.7083C0.000244141 7.91667 7.91691 0 17.7086 0Z" fill="#00005B"/>
<path d="M40.1669 58.3333H24.6669L21.5002 68.1666C21.4169 68.5416 21.0835 68.7916 20.7085 68.7499H12.8752C12.4169 68.7499 12.2919 68.4999 12.4169 67.9999L25.8335 29.5416C25.9585 29.1249 26.0835 28.7499 26.2502 28.2499C26.4169 27.3749 26.5002 26.4583 26.5002 25.5416C26.4585 25.3333 26.6252 25.1249 26.8335 25.0833H26.9585H37.6252C37.9169 25.0833 38.1252 25.2083 38.1669 25.4166L53.3752 67.9166C53.5002 68.3749 53.3752 68.5833 52.9585 68.5833H44.2502C43.9585 68.6249 43.6669 68.4166 43.5835 68.1249L40.1669 58.1249V58.3333ZM27.0835 50.0416H37.6669C37.4169 49.1666 37.0835 48.1249 36.7085 47.0416C36.3335 45.9166 35.9585 44.7083 35.5835 43.4583C35.1669 42.1666 34.7919 40.9166 34.3752 39.6249C33.9585 38.3333 33.5835 37.1249 33.2502 35.9166C32.9169 34.7499 32.6252 33.6666 32.3335 32.6666H32.2502C31.8752 34.4583 31.4169 36.2499 30.8335 38.0416C30.2085 40.0416 29.5835 42.1249 28.9169 44.2083C28.3752 46.3333 27.7085 48.2916 27.0835 50.0416Z" fill="#9999FF"/>
<path d="M77.9169 54.5832H64.7085C64.8752 55.8749 65.2919 57.1666 66.0002 58.2916C66.7502 59.4166 67.7919 60.2916 69.0419 60.7916C70.7085 61.4999 72.5419 61.8749 74.3752 61.8332C75.8335 61.7916 77.2919 61.6666 78.7085 61.3749C80.0002 61.2082 81.2502 60.8749 82.4169 60.4166C82.6252 60.2499 82.7502 60.3332 82.7502 60.7499V67.1249C82.7502 67.2916 82.7085 67.4582 82.6669 67.6249C82.5835 67.7499 82.5002 67.8332 82.3752 67.9166C81.0419 68.4999 79.6669 68.9166 78.2085 69.1666C76.2502 69.5416 74.2919 69.7082 72.2919 69.6666C69.1252 69.6666 66.4585 69.1666 64.2919 68.2082C62.2502 67.3332 60.4585 65.9582 59.0419 64.2499C57.7085 62.6249 56.7502 60.7916 56.1669 58.7916C55.5835 56.8332 55.2919 54.7916 55.2919 52.7082C55.2919 50.4582 55.6252 48.2499 56.3335 46.0832C57.0002 43.9999 58.0419 42.0832 59.4585 40.3749C60.8335 38.7082 62.5419 37.3749 64.5002 36.4166C66.4585 35.4582 68.7919 35.1249 71.4585 35.1249C73.6669 35.0832 75.8752 35.4999 77.9169 36.4166C79.6252 37.1666 81.1252 38.2916 82.2919 39.7499C83.3752 41.1666 84.2502 42.7499 84.7919 44.4999C85.3335 46.1666 85.5835 47.8749 85.5835 49.5832C85.5835 50.5832 85.5419 51.4582 85.5002 52.2499C85.4169 53.0416 85.3752 53.6249 85.3335 53.9999C85.2919 54.2916 85.0419 54.5416 84.7502 54.5416C84.5002 54.5416 84.0419 54.5832 83.3752 54.6249C82.7085 54.7082 81.9169 54.7499 80.9585 54.7499C80.0002 54.7499 79.0002 54.5832 77.9169 54.5832ZM64.7085 48.4999H73.5002C74.5835 48.4999 75.3752 48.4999 75.8752 48.4582C76.2085 48.4166 76.5419 48.3332 76.8335 48.1249V47.7082C76.8335 47.1666 76.7502 46.6666 76.5835 46.1666C75.8335 43.8332 73.6252 42.2499 71.1669 42.3332C68.8752 42.2082 66.7085 43.4166 65.6252 45.4999C65.1252 46.4582 64.8335 47.4582 64.7085 48.4999Z" fill="#9999FF"/>
</svg>
