<svg width="100" height="98" viewBox="0 0 100 98" fill="none" xmlns="http://www.w3.org/2000/svg">
<path d="M17.7083 0H82.2917C92.0833 0 100 7.91667 100 17.7083V79.7917C100 89.5833 92.0833 97.5 82.2917 97.5H17.7083C7.91667 97.5 0 89.5833 0 79.7917V17.7083C0 7.91667 7.91667 0 17.7083 0Z" fill="#470137"/>
<path d="M52.5833 25.625L40.0833 46.25L53.4166 68.125C53.5 68.2917 53.5416 68.4583 53.5 68.625C53.4583 68.7917 53.2916 68.6667 53.0416 68.7083H43.5C42.8333 68.7083 42.375 68.6667 42.0833 68.25C41.2083 66.5 40.2916 64.7917 39.4166 63.0417C38.5416 61.3333 37.5833 59.5833 36.5833 57.7917C35.5833 56 34.5833 54.2083 33.5833 52.375H33.5C32.625 54.1667 31.6666 55.9583 30.7083 57.75C29.75 59.5417 28.7916 61.3333 27.875 63.0833C26.9166 64.8333 25.9583 66.625 25 68.3333C24.8333 68.75 24.5 68.7917 24.0416 68.7917H14.875C14.7083 68.7917 14.5833 68.875 14.5833 68.6667C14.5416 68.5 14.5833 68.3333 14.6666 68.2083L27.625 46.9583L15 25.5833C14.875 25.4167 14.8333 25.25 14.9166 25.1667C15 25.0417 15.1666 25 15.3333 25H24.7916C25 25 25.2083 25.0417 25.375 25.0833C25.5416 25.1667 25.6666 25.2917 25.7916 25.4583C26.5833 27.25 27.5 29.0417 28.4583 30.8333C29.4583 32.625 30.4166 34.375 31.4583 36.125C32.4583 37.875 33.375 39.625 34.25 41.4167H34.3333C35.2083 39.5833 36.125 37.7917 37.0416 36.0417C37.9583 34.2917 38.9166 32.5417 39.875 30.7917C40.8333 29.0417 41.75 27.25 42.6666 25.5417C42.7083 25.375 42.7916 25.2083 42.9166 25.125C43.0833 25.0417 43.25 25 43.4583 25.0417H52.25C52.4583 25 52.6666 25.125 52.7083 25.3333C52.75 25.375 52.6666 25.5417 52.5833 25.625Z" fill="#FF61F6"/>
<path d="M71.8333 69.5833C68.7499 69.625 65.6666 69 62.8749 67.7083C60.2499 66.5 58.0833 64.5 56.5833 62.0417C55.0416 59.5 54.2916 56.3333 54.2916 52.5417C54.2499 49.4583 55.0416 46.4167 56.5833 43.75C58.1666 41.0417 60.4583 38.7917 63.2083 37.2917C66.1249 35.6667 69.6249 34.875 73.7499 34.875C73.9583 34.875 74.2499 34.875 74.6249 34.9167C74.9999 34.9583 75.4166 34.9583 75.9166 35V21.8333C75.9166 21.5417 76.0416 21.375 76.3333 21.375H84.7916C84.9999 21.3333 85.1666 21.5 85.2083 21.6667C85.2083 21.7083 85.2083 21.75 85.2083 21.75V61.4167C85.2083 62.1667 85.2499 63 85.2916 63.9167C85.3749 64.7917 85.4166 65.625 85.4583 66.3333C85.4583 66.625 85.3333 66.875 85.0416 67C82.8749 67.9167 80.5833 68.5833 78.2499 69C76.1249 69.375 73.9999 69.5833 71.8333 69.5833ZM75.9166 61.25V42.9167C75.5416 42.8333 75.1666 42.75 74.7916 42.7083C74.3333 42.6667 73.8749 42.625 73.4166 42.625C71.7916 42.625 70.1666 42.9583 68.7083 43.7083C67.2916 44.4167 66.0833 45.4583 65.1666 46.7917C64.2499 48.125 63.7916 49.9167 63.7916 52.0833C63.7499 53.5417 63.9999 55 64.4999 56.375C64.9166 57.5 65.5416 58.5 66.3749 59.3333C67.1666 60.0833 68.1249 60.6667 69.2083 61C70.3333 61.375 71.4999 61.5417 72.6666 61.5417C73.2916 61.5417 73.8749 61.5 74.4166 61.4583C74.9583 61.5 75.4166 61.4167 75.9166 61.25Z" fill="#FF61F6"/>
</svg>
