<svg width="100" height="98" viewBox="0 0 100 98" fill="none" xmlns="http://www.w3.org/2000/svg">
<path d="M17.7083 0H82.2917C92.0833 0 100 7.91667 100 17.7083V79.7917C100 89.5833 92.0833 97.5 82.2917 97.5H17.7083C7.91667 97.5 0 89.5833 0 79.7917V17.7083C0 7.91667 7.91667 0 17.7083 0Z" fill="#330000"/>
<path d="M48.4584 58.4999H32.9584L29.7917 68.2916C29.7084 68.6666 29.375 68.9166 29 68.8749H21.1667C20.7084 68.8749 20.5834 68.6249 20.7084 68.1249L34.125 29.4999C34.25 29.0833 34.375 28.6249 34.5417 28.1249C34.7084 27.2499 34.7917 26.3333 34.7917 25.4166C34.75 25.2083 34.9167 24.9999 35.125 24.9583C35.1667 24.9583 35.2084 24.9583 35.25 24.9583H45.9167C46.25 24.9583 46.4167 25.0833 46.4584 25.2916L61.6667 68.2082C61.7917 68.6666 61.6667 68.8749 61.25 68.8749H52.5417C52.25 68.9166 51.9584 68.7082 51.875 68.4166L48.4584 58.4999ZM35.375 50.0416H45.9584C45.7084 49.1666 45.375 48.1249 45 47.0416C44.625 45.9166 44.25 44.7083 43.875 43.4583C43.4584 42.1666 43.0834 40.9166 42.6667 39.6249C42.25 38.3333 41.875 37.1249 41.5417 35.9166C41.2084 34.7499 40.9167 33.6666 40.625 32.6666H40.5417C40.1667 34.4583 39.7084 36.2499 39.125 38.0416C38.5 40.0416 37.875 42.1249 37.2084 44.2083C36.625 46.3333 36 48.2916 35.375 50.0416Z" fill="#FF9A00"/>
<path d="M70.7501 32.0833C69.3751 32.125 68.0418 31.5833 67.0418 30.625C66.0834 29.5833 65.5834 28.2083 65.6251 26.7917C65.5834 25.375 66.1251 24.0417 67.1251 23.0833C68.1251 22.125 69.4584 21.625 70.8334 21.625C72.4584 21.625 73.7084 22.125 74.6251 23.0833C75.5418 24.0833 76.0418 25.4167 76.0001 26.7917C76.0418 28.2083 75.5418 29.5833 74.5418 30.625C73.5834 31.625 72.1668 32.1667 70.7501 32.0833ZM66.0834 68.25V36.1667C66.0834 35.75 66.2501 35.5833 66.6251 35.5833H74.8751C75.2501 35.5833 75.4168 35.7917 75.4168 36.1667V68.25C75.4168 68.7083 75.2501 68.9167 74.8751 68.9167H66.7084C66.2918 68.9167 66.0834 68.6667 66.0834 68.25Z" fill="#FF9A00"/>
</svg>
