<svg width="67" height="98" viewBox="0 0 67 98" fill="none" xmlns="http://www.w3.org/2000/svg">
<path d="M63.8222 63.8214C64.8722 64.8714 64.1278 66.6659 62.6444 66.6659H35C34.0778 66.6659 33.3333 67.4103 33.3333 68.3325V95.977C33.3333 97.4603 31.5389 98.2047 30.4889 97.1547L0.65 67.3158C0.233333 66.8992 0 66.3325 0 65.7436V34.9992C0 34.077 0.744444 33.3325 1.66667 33.3325H33.3333L63.8222 63.8214Z" fill="white"/>
<path d="M33.3334 33.3325L2.84447 2.84359C1.79447 1.79359 2.53892 -0.000854492 4.02225 -0.000854492H65C65.9222 -0.000854492 66.6667 0.74359 66.6667 1.66581V31.6658C66.6667 32.588 65.9222 33.3325 65 33.3325H33.3334Z" fill="white"/>
</svg>
