<svg width="13" height="15" viewBox="0 0 13 15" fill="none" xmlns="http://www.w3.org/2000/svg">
<g filter="url(#filter0_d_180_15017)">
<path fill-rule="evenodd" clip-rule="evenodd" d="M4.87754 0.79482C4.95828 0.615393 5.13675 0.5 5.3335 0.5H11.0002C11.1784 0.5 11.3432 0.59488 11.4326 0.749033C11.5221 0.903193 11.5227 1.09332 11.4343 1.24807L9.1951 5.16667H11.6668C11.869 5.16667 12.0514 5.28849 12.1288 5.47533C12.2062 5.66216 12.1634 5.8772 12.0204 6.0202L4.68705 13.3535C4.52814 13.5125 4.28272 13.5458 4.08715 13.4351C3.89158 13.3244 3.79392 13.0967 3.84843 12.8787L5.02645 8.16667H2.3335C2.16384 8.16667 2.00574 8.0806 1.91362 7.93813C1.8215 7.79567 1.80791 7.6162 1.87754 7.46147L4.87754 0.79482Z" fill="url(#paint0_linear_180_15017)"/>
</g>
<defs>
<filter id="filter0_d_180_15017" x="0.333496" y="5.96046e-08" width="12.3335" height="15" filterUnits="userSpaceOnUse" color-interpolation-filters="sRGB">
<feFlood flood-opacity="0" result="BackgroundImageFix"/>
<feColorMatrix in="SourceAlpha" type="matrix" values="0 0 0 0 0 0 0 0 0 0 0 0 0 0 0 0 0 0 127 0" result="hardAlpha"/>
<feOffset dx="-0.5" dy="0.5"/>
<feGaussianBlur stdDeviation="0.5"/>
<feComposite in2="hardAlpha" operator="out"/>
<feColorMatrix type="matrix" values="0 0 0 0 0 0 0 0 0 0 0 0 0 0 0 0 0 0 0.16 0"/>
<feBlend mode="normal" in2="BackgroundImageFix" result="effect1_dropShadow_180_15017"/>
<feBlend mode="normal" in="SourceGraphic" in2="effect1_dropShadow_180_15017" result="shape"/>
</filter>
<linearGradient id="paint0_linear_180_15017" x1="7.00017" y1="0.5" x2="7.00017" y2="13.5" gradientUnits="userSpaceOnUse">
<stop stop-color="#F5F5F5"/>
<stop offset="1" stop-color="#CFF0E1"/>
</linearGradient>
</defs>
</svg>
