<svg width="21" height="20" viewBox="0 0 21 20" fill="none" xmlns="http://www.w3.org/2000/svg">
<g clip-path="url(#clip0_4437_1384)">
<path fill-rule="evenodd" clip-rule="evenodd" d="M0 4.03193C0 3.20295 0.329312 2.40792 0.91549 1.82174C1.50167 1.23556 2.2967 0.90625 3.12568 0.90625L11.3661 0.90625C13.7777 0.90625 16.0905 1.86425 17.7957 3.56949C19.501 5.27474 20.459 7.58755 20.459 9.99913C20.459 12.4107 19.501 14.7235 17.7957 16.4288C16.0905 18.134 13.7777 19.092 11.3661 19.092H3.12568C2.2967 19.092 1.50167 18.7627 0.91549 18.1765C0.329312 17.5903 0 16.7953 0 15.9663L0 4.03193Z" fill="white"/>
<path d="M5.03848 9.44806C5.374 9.44806 5.69577 9.31478 5.93301 9.07754C6.17025 8.8403 6.30353 8.51853 6.30353 8.18302C6.30353 7.8475 6.17025 7.52573 5.93301 7.28849C5.69577 7.05125 5.374 6.91797 5.03848 6.91797C4.70297 6.91797 4.3812 7.05125 4.14396 7.28849C3.90672 7.52573 3.77344 7.8475 3.77344 8.18302C3.77344 8.51853 3.90672 8.8403 4.14396 9.07754C4.3812 9.31478 4.70297 9.44806 5.03848 9.44806ZM5.99324 14.5492C5.74174 14.5495 5.49266 14.5002 5.26024 14.4041C5.02781 14.308 4.81662 14.1671 4.63873 13.9893C4.46084 13.8115 4.31976 13.6004 4.22355 13.368C4.12734 13.1357 4.0779 12.8866 4.07805 12.6351V11.1393C4.07805 10.8846 4.17924 10.6403 4.35935 10.4602C4.53947 10.2801 4.78376 10.1789 5.03848 10.1789C5.29321 10.1789 5.5375 10.2801 5.71762 10.4602C5.89773 10.6403 5.99892 10.8846 5.99892 11.1393V14.5492H5.99324Z" fill="black"/>
<path fill-rule="evenodd" clip-rule="evenodd" d="M1.13672 4.03204C1.13672 2.93407 2.02782 2.04297 3.12579 2.04297H11.3662C13.4763 2.04297 15.5001 2.88122 16.9921 4.37331C18.4842 5.8654 19.3225 7.88911 19.3225 9.99924C19.3225 12.1094 18.4842 14.1331 16.9921 15.6252C15.5001 17.1173 13.4763 17.9555 11.3662 17.9555H3.12579C2.59825 17.9555 2.09233 17.746 1.7193 17.3729C1.34628 16.9999 1.13672 16.494 1.13672 15.9664V4.03204ZM3.12579 3.17958C2.8997 3.17958 2.68287 3.26939 2.52301 3.42926C2.36314 3.58912 2.27333 3.80595 2.27333 4.03204V15.9664C2.27333 16.437 2.65523 16.8189 3.12579 16.8189H11.3662C13.1749 16.8189 14.9095 16.1004 16.1884 14.8215C17.4674 13.5425 18.1859 11.8079 18.1859 9.99924C18.1859 8.19055 17.4674 6.45595 16.1884 5.17701C14.9095 3.89808 13.1749 3.17958 11.3662 3.17958H3.12579Z" fill="black"/>
<path d="M7.4445 6.08963V14.546H11.1248C14.4665 14.546 15.9145 12.6592 15.9145 9.98934C15.9145 7.43537 14.4653 5.45312 11.1248 5.45312H8.081C7.91217 5.45342 7.75033 5.52054 7.63085 5.63981C7.51137 5.75908 7.44396 5.9208 7.44336 6.08963H7.4445Z" fill="#E60073"/>
</g>
<defs>
<clipPath id="clip0_4437_1384">
<rect width="20.459" height="18.1858" fill="white" transform="translate(0 0.90625)"/>
</clipPath>
</defs>
</svg>
