<svg xmlns="http://www.w3.org/2000/svg" fill="none" viewBox="0 0 93 80"><path fill="#C06" d="M25.129 13.064V71.33h25.366c23.042 0 33.033-13.02 33.033-31.39 0-17.595-9.99-31.27-33.033-31.27H29.522a4.393 4.393 0 0 0-4.393 4.394Z"></path><path fill="#000" d="M6.59 2.196A4.398 4.398 0 0 0 2.196 6.59v66.82a4.398 4.398 0 0 0 4.394 4.394h40.992c27.397 0 42.487-13.458 42.487-37.894 0-32.815-26.62-37.714-42.487-37.714H6.59ZM47.582 80H6.59A6.597 6.597 0 0 1 0 73.41V6.59A6.597 6.597 0 0 1 6.59 0h40.992C86.46 0 92.265 25.004 92.265 39.91 92.265 65.763 76.397 80 47.582 80Z"></path><path fill="#fff" d="M33.845 43.42c.441 0 .87-.072 1.287-.214.416-.143.786-.38 1.11-.712.326-.33.586-.763.78-1.296.195-.532.293-1.183.293-1.95 0-.702-.069-1.335-.204-1.9a3.782 3.782 0 0 0-.673-1.453 2.999 2.999 0 0 0-1.237-.926c-.515-.215-1.148-.322-1.901-.322h-2.184v8.774h2.73Zm.215-11.346c.896 0 1.732.144 2.504.43a5.438 5.438 0 0 1 2.008 1.285c.566.572 1.007 1.287 1.327 2.145.317.858.477 1.865.477 3.022 0 1.014-.13 1.95-.39 2.808-.26.856-.653 1.598-1.179 2.221a5.52 5.52 0 0 1-1.97 1.473c-.786.358-1.712.536-2.777.536h-6.005v-13.92h6.005Zm18.756.001v2.572h-7.349v2.983h6.744v2.379h-6.744v3.412h7.505v2.573H42.406v-13.92h10.41Zm10.656 8.538-1.755-5.108h-.039l-1.812 5.108h3.606Zm-.175-8.539 5.204 13.92h-3.177l-1.053-3.1h-5.206l-1.091 3.1h-3.08l5.264-13.92h3.139Zm10.19.001V43.42h6.784v2.573h-9.845v-13.92h3.06Z"></path><path fill="#000" d="M20.088 39.034a6.421 6.421 0 1 1-12.842 0 6.421 6.421 0 0 1 12.842 0ZM18.53 71.33c-5.373 0-9.73-4.356-9.73-9.73v-7.588a4.865 4.865 0 0 1 9.73 0V71.33Z"></path></svg>