<svg width="108" height="17" viewBox="0 0 108 17" fill="none" xmlns="http://www.w3.org/2000/svg">
<g clip-path="url(#clip0_4439_2193)">
<path d="M21.75 0.789062H2.25C1.14543 0.789062 0.25 1.68449 0.25 2.78906V14.2891C0.25 15.3936 1.14543 16.2891 2.25 16.2891H21.75C22.8546 16.2891 23.75 15.3936 23.75 14.2891V2.78906C23.75 1.68449 22.8546 0.789062 21.75 0.789062Z" fill="white" stroke="black" stroke-opacity="0.2" stroke-width="0.5"/>
<path d="M2.78773 6.4535C2.26459 6.16657 1.66754 5.9358 1 5.77566L1.028 5.65094H3.76498C4.13596 5.66395 4.43699 5.77557 4.53495 6.16977L5.12977 9.00565L5.31198 9.85979L6.97797 5.65094H8.77679L6.10288 11.8166H4.30397L2.78773 6.4535ZM10.1 11.8231H8.39883L9.46285 5.65094H11.1639L10.1 11.8231ZM16.2668 5.80184L16.0354 7.13465L15.8816 7.06911C15.5737 6.94431 15.1674 6.8196 14.6144 6.83278C13.9427 6.83278 13.6415 7.10183 13.6345 7.36452C13.6345 7.65348 13.9989 7.8439 14.5939 8.12631C15.574 8.56625 16.0286 9.10463 16.0218 9.80725C16.0081 11.0877 14.846 11.9151 13.0611 11.9151C12.2979 11.9085 11.5628 11.7572 11.1638 11.5866L11.4019 10.2011L11.6259 10.2997C12.1789 10.5298 12.5428 10.628 13.222 10.628C13.7118 10.628 14.2369 10.4374 14.2436 10.0239C14.2436 9.75471 14.0199 9.55757 13.3617 9.25552C12.7178 8.95993 11.8568 8.46755 11.8708 7.58104C11.8781 6.37949 13.0611 5.53906 14.741 5.53906C15.399 5.53906 15.9312 5.67695 16.2668 5.80184ZM18.5278 9.63655H19.9417C19.8718 9.32796 19.5496 7.85054 19.5496 7.85054L19.4307 7.3187C19.3467 7.54849 19.1999 7.9228 19.2069 7.90962C19.2069 7.90962 18.6678 9.28196 18.5278 9.63655ZM20.6276 5.65094L22 11.823H20.4249C20.4249 11.823 20.2708 11.1139 20.2219 10.8972H18.0378C17.9746 11.0613 17.6808 11.823 17.6808 11.823H15.8958L18.4226 6.16305C18.5977 5.76248 18.906 5.65094 19.3118 5.65094H20.6276Z" fill="#1434CB"/>
</g>
<g clip-path="url(#clip1_4439_2193)">
<g clip-path="url(#clip2_4439_2193)">
<g clip-path="url(#clip3_4439_2193)">
<path d="M50 0.539062H30C28.8954 0.539062 28 1.43449 28 2.53906V14.5391C28 15.6436 28.8954 16.5391 30 16.5391H50C51.1046 16.5391 52 15.6436 52 14.5391V2.53906C52 1.43449 51.1046 0.539062 50 0.539062Z" fill="#252525"/>
<path d="M37 13.5391C39.7614 13.5391 42 11.3005 42 8.53906C42 5.77764 39.7614 3.53906 37 3.53906C34.2386 3.53906 32 5.77764 32 8.53906C32 11.3005 34.2386 13.5391 37 13.5391Z" fill="#EB001B"/>
<path d="M43 13.5391C45.7614 13.5391 48 11.3005 48 8.53906C48 5.77764 45.7614 3.53906 43 3.53906C40.2386 3.53906 38 5.77764 38 8.53906C38 11.3005 40.2386 13.5391 43 13.5391Z" fill="#F79E1B"/>
<path fill-rule="evenodd" clip-rule="evenodd" d="M40 4.53906C41.2144 5.45127 42 6.90361 42 8.53943C42 10.1752 41.2144 11.6276 40 12.5398C38.7856 11.6276 38 10.1752 38 8.53943C38 6.90361 38.7856 5.45127 40 4.53906Z" fill="#FF5F00"/>
</g>
</g>
</g>
<g clip-path="url(#clip4_4439_2193)">
<g clip-path="url(#clip5_4439_2193)">
<g clip-path="url(#clip6_4439_2193)">
<path d="M78 0.539062H58C56.8954 0.539062 56 1.43449 56 2.53906V14.5391C56 15.6436 56.8954 16.5391 58 16.5391H78C79.1046 16.5391 80 15.6436 80 14.5391V2.53906C80 1.43449 79.1046 0.539062 78 0.539062Z" fill="#016FD0"/>
<path fill-rule="evenodd" clip-rule="evenodd" d="M69.7637 13.9319V8.23047L79.9112 8.23957V9.81447L78.7383 11.0679L79.9112 12.3327V13.9411H78.0386L77.0434 12.8429L76.0553 13.9452L69.7637 13.9319Z" fill="#FFFFFE"/>
<path fill-rule="evenodd" clip-rule="evenodd" d="M70.4414 13.3083V8.85938H74.2137V9.88426H71.6628V10.5799H74.1529V11.5878H71.6628V12.2711H74.2137V13.3083H70.4414Z" fill="#016FD0"/>
<path fill-rule="evenodd" clip-rule="evenodd" d="M74.1954 13.3082L76.2827 11.0812L74.1953 8.85938H75.811L77.0865 10.2694L78.3656 8.85938H79.9117V8.89438L77.8689 11.0812L79.9117 13.2451V13.3082H78.35L77.0519 11.884L75.7671 13.3082H74.1954Z" fill="#016FD0"/>
<path fill-rule="evenodd" clip-rule="evenodd" d="M70.2369 3.17188H72.6829L73.5421 5.12273V3.17188H76.5619L77.0827 4.63344L77.6052 3.17188H79.9111V8.87327H67.7246L70.2369 3.17188Z" fill="#FFFFFE"/>
<path fill-rule="evenodd" clip-rule="evenodd" d="M70.7006 3.78906L68.7266 8.23423H70.0805L70.4529 7.34407H72.4708L72.843 8.23423H74.2306L72.2648 3.78906H70.7006ZM70.8702 6.3465L71.4622 4.93143L72.0538 6.3465H70.8702Z" fill="#016FD0"/>
<path fill-rule="evenodd" clip-rule="evenodd" d="M74.2129 8.23415V3.78906L76.116 3.7956L77.0953 6.52833L78.0809 3.78906H79.9125V8.23415L78.7339 8.24458V5.19123L77.6213 8.23415H76.5455L75.4099 5.1808V8.23415H74.2129Z" fill="#016FD0"/>
</g>
</g>
</g>
<g clip-path="url(#clip7_4439_2193)">
<g clip-path="url(#clip8_4439_2193)">
<g clip-path="url(#clip9_4439_2193)">
<path d="M105.997 16.289L105.999 16.289C106.954 16.2972 107.738 15.5163 107.75 14.5432L107.75 2.54536C107.746 2.07475 107.559 1.62523 107.23 1.29586C106.901 0.967331 106.459 0.785211 105.997 0.789133L86.0006 0.789124C85.5411 0.785211 85.0986 0.967331 84.7703 1.29586C84.4411 1.62523 84.2538 2.07475 84.25 2.54333L84.25 14.5328C84.2538 15.0034 84.4411 15.4529 84.7703 15.7823C85.0986 16.1108 85.5411 16.2929 86.0028 16.289H105.997ZM105.996 16.789L105.995 16.789L105.997 16.789H105.996Z" fill="white" stroke="black" stroke-opacity="0.2" stroke-width="0.5"/>
<path d="M94.0016 2.59022V2.57422H98.0016V2.59022C101.137 2.81966 103.564 5.4304 103.564 8.57422C103.564 11.718 101.137 14.3288 98.0016 14.5582V14.5742H94.0016V14.5582C90.8661 14.3288 88.4395 11.718 88.4395 8.57422C88.4395 5.4304 90.8661 2.81966 94.0016 2.59022Z" fill="#0165AC"/>
<path d="M95.6012 11.967C97.0365 11.4567 97.9952 10.0983 97.9952 8.575C97.9952 7.0517 97.0365 5.69329 95.6012 5.183V11.967ZM93.2012 5.183C91.7659 5.69329 90.8071 7.0517 90.8071 8.575C90.8071 10.0983 91.7659 11.4567 93.2012 11.967V5.183ZM94.4012 13.775C91.5293 13.775 89.2012 11.4469 89.2012 8.575C89.2012 5.70312 91.5293 3.375 94.4012 3.375C97.2731 3.375 99.6012 5.70312 99.6012 8.575C99.6012 11.4469 97.2731 13.775 94.4012 13.775Z" fill="white"/>
</g>
</g>
</g>
<defs>
<clipPath id="clip0_4439_2193">
<rect width="24" height="16" fill="white" transform="translate(0 0.539062)"/>
</clipPath>
<clipPath id="clip1_4439_2193">
<rect width="24" height="16" fill="white" transform="translate(28 0.539062)"/>
</clipPath>
<clipPath id="clip2_4439_2193">
<rect width="24" height="16" fill="white" transform="translate(28 0.539062)"/>
</clipPath>
<clipPath id="clip3_4439_2193">
<rect width="24" height="16" fill="white" transform="translate(28 0.539062)"/>
</clipPath>
<clipPath id="clip4_4439_2193">
<rect width="24" height="16" fill="white" transform="translate(56 0.539062)"/>
</clipPath>
<clipPath id="clip5_4439_2193">
<rect width="24" height="16" fill="white" transform="translate(56 0.539062)"/>
</clipPath>
<clipPath id="clip6_4439_2193">
<rect width="24" height="16" fill="white" transform="translate(56 0.539062)"/>
</clipPath>
<clipPath id="clip7_4439_2193">
<rect width="24" height="16" fill="white" transform="translate(84 0.539062)"/>
</clipPath>
<clipPath id="clip8_4439_2193">
<rect width="24" height="16" fill="white" transform="translate(84 0.539062)"/>
</clipPath>
<clipPath id="clip9_4439_2193">
<rect width="24" height="16" fill="white" transform="translate(84 0.539062)"/>
</clipPath>
</defs>
</svg>
