<svg width="145" height="82" viewBox="0 0 145 82" fill="none" xmlns="http://www.w3.org/2000/svg">
<path d="M125.4 48.1211V78.1211C125.4 79.2211 124.5 80.1211 123.4 80.1211H3.30005C2.20005 80.1211 1.30005 79.2211 1.30005 78.1211V3.12109C1.30005 2.02109 2.20005 1.12109 3.30005 1.12109H123.4C124.5 1.12109 125.4 2.02109 125.4 3.12109V40.1211M1.30005 11.1211H125.4" stroke="#C2C0B6" stroke-width="2" stroke-miterlimit="10"/>
<path d="M6.49995 7.7211C7.49407 7.7211 8.29996 6.91519 8.29996 5.92108C8.29996 4.92697 7.49407 4.12109 6.49995 4.12109C5.50584 4.12109 4.69995 4.92697 4.69995 5.92108C4.69995 6.91519 5.50584 7.7211 6.49995 7.7211Z" fill="#C2C0B6"/>
<path d="M12.1001 7.7211C13.0942 7.7211 13.9001 6.91519 13.9001 5.92108C13.9001 4.92697 13.0942 4.12109 12.1001 4.12109C11.1059 4.12109 10.3 4.92697 10.3 5.92108C10.3 6.91519 11.1059 7.7211 12.1001 7.7211Z" fill="#C2C0B6"/>
<path d="M17.6999 7.7211C18.694 7.7211 19.4999 6.91519 19.4999 5.92108C19.4999 4.92697 18.694 4.12109 17.6999 4.12109C16.7058 4.12109 15.8999 4.92697 15.8999 5.92108C15.8999 6.91519 16.7058 7.7211 17.6999 7.7211Z" fill="#C2C0B6"/>
<path d="M105.6 44.121H142.3M138.7 40.021L142.7 44.121L138.7 48.221" stroke="#C2C0B6" stroke-width="2" stroke-miterlimit="10"/>
</svg>
